<?xml version="1.0" encoding="UTF-8" standalone="no"?>
<!-- Created with Inkscape (http://www.inkscape.org/) -->

<svg
   width="12.700016mm"
   height="11.790665mm"
   viewBox="0 0 12.700016 11.790665"
   version="1.1"
   id="svg1"
   xml:space="preserve"
   xmlns:inkscape="http://www.inkscape.org/namespaces/inkscape"
   xmlns:sodipodi="http://sodipodi.sourceforge.net/DTD/sodipodi-0.dtd"
   xmlns="http://www.w3.org/2000/svg"
   xmlns:svg="http://www.w3.org/2000/svg"><sodipodi:namedview
     id="namedview1"
     pagecolor="#ffffff"
     bordercolor="#000000"
     borderopacity="0.25"
     inkscape:showpageshadow="2"
     inkscape:pageopacity="0.0"
     inkscape:pagecheckerboard="0"
     inkscape:deskcolor="#d1d1d1"
     inkscape:document-units="mm" /><defs
     id="defs1" /><g
     inkscape:label="Capa 1"
     inkscape:groupmode="layer"
     id="layer1"
     transform="translate(-134.72449,-118.73438)"><path
       style="fill:#000000;stroke-width:0.214782"
       d="m 140.33624,130.37481 -0.32676,-0.14915 v -1.63288 c 0,-1.23842 -0.0172,-1.64646 -0.071,-1.68912 -0.0391,-0.0309 -0.42226,-0.15771 -0.85153,-0.28172 l -0.7805,-0.22548 -0.0151,1.54901 -0.0151,1.54901 -1.60538,-0.68711 -1.60538,-0.68712 v -2.40562 c 0,-1.92058 0.0147,-2.40562 0.073,-2.40562 0.0401,0 1.22286,0.25325 2.62828,0.56278 1.40542,0.30953 2.63324,0.57894 2.72849,0.59868 l 0.17318,0.0359 1.30168,-2.23248 c 0.71592,-1.22786 1.34458,-2.30455 1.39702,-2.39265 l 0.0953,-0.16018 1.42746,1.68637 1.42747,1.68636 v 2.53884 2.53884 l -2.75249,1.17733 c -1.51387,0.64753 -2.7861,1.17684 -2.82718,1.17624 -0.0411,-6.4e-4 -0.22173,-0.0682 -0.40145,-0.15023 z m 2.40097,-2.10823 0.76717,-0.27002 0.0163,-0.59248 c 0.009,-0.32586 0.004,-0.62351 -0.0102,-0.66144 -0.0189,-0.0494 -0.25562,0.002 -0.8328,0.18163 -0.44348,0.13783 -0.82889,0.26453 -0.85647,0.28157 -0.0276,0.0171 -0.0501,0.33808 -0.0501,0.7134 0,0.62442 0.008,0.67964 0.0994,0.64988 0.0547,-0.0179 0.44468,-0.15404 0.86663,-0.30254 z m 2.21628,-0.77138 0.65352,-0.23856 0.0161,-0.60995 c 0.009,-0.33547 -0.004,-0.60979 -0.0284,-0.60959 -0.0245,2e-4 -0.36419,0.0981 -0.75489,0.21747 l -0.71034,0.2171 -0.0161,0.63495 c -0.0146,0.57849 -0.007,0.63461 0.0852,0.63104 0.0557,-0.002 0.3954,-0.11125 0.75483,-0.24246 z m -7.68409,-0.44259 -0.0161,-0.63213 -0.62511,-0.19162 c -0.34381,-0.10539 -0.65796,-0.19173 -0.69813,-0.19187 -0.0558,-1.9e-4 -0.0692,0.13708 -0.0568,0.58175 l 0.0162,0.58199 0.65352,0.23674 c 0.35944,0.13021 0.67353,0.23911 0.698,0.24201 0.0245,0.003 0.0373,-0.2792 0.0284,-0.62687 z m 2.72767,-1.22778 -0.016,-0.66654 -0.76717,-0.18463 c -0.42195,-0.10155 -0.79998,-0.18519 -0.84007,-0.18588 -0.056,-8.6e-4 -0.0692,0.14623 -0.0568,0.63419 l 0.0161,0.63544 0.73876,0.21413 c 0.40632,0.11777 0.78432,0.21541 0.84001,0.21697 0.0924,0.003 0.0998,-0.0554 0.0852,-0.66368 z m 2.78276,0.40473 0.75297,-0.21389 v -0.64298 c 0,-0.57506 -0.0105,-0.64283 -0.0995,-0.64148 -0.0547,8.6e-4 -0.43189,0.0855 -0.83821,0.18816 l -0.73876,0.18666 -0.016,0.69706 c -0.0148,0.64544 -0.009,0.69496 0.0852,0.66871 0.0557,-0.0156 0.44007,-0.1246 0.8542,-0.24224 z m 2.13647,-0.61296 c 0.368,-0.10605 0.68125,-0.20498 0.69611,-0.21983 0.0149,-0.0149 0.0197,-0.29434 0.0108,-0.62106 l -0.0162,-0.59405 -0.73876,0.17739 -0.73876,0.17738 -0.0161,0.6365 c -0.0125,0.49707 4.3e-4,0.6365 0.0589,0.6365 0.0412,0 0.37602,-0.0868 0.74402,-0.19283 z m -7.53318,-0.4749 -0.0161,-0.61089 -0.69971,-0.18005 c -0.52485,-0.13505 -0.70648,-0.16239 -0.72681,-0.10939 -0.0149,0.0389 -0.0197,0.30977 -0.0106,0.60203 l 0.0165,0.53139 0.6251,0.18357 c 0.90402,0.26547 0.83072,0.30309 0.81172,-0.41666 z m 0.94994,-1.46499 c -1.06268,-0.23169 -2.30934,-0.50242 -2.77035,-0.60163 l -0.83821,-0.18037 v -0.19525 c 0,-0.1582 0.23274,-0.55278 1.22694,-2.08016 l 1.22694,-1.88492 3.3374,0.0151 3.3374,0.0151 0.17334,0.18381 c 0.0953,0.10109 0.87073,1.01491 1.72311,2.0307 0.85237,1.0158 1.58849,1.89166 1.63583,1.94635 0.0809,0.0934 0.0621,0.0995 -0.30993,0.0995 h -0.39599 l -0.39641,-0.46883 c -0.21802,-0.25785 -0.94217,-1.1163 -1.60922,-1.90765 -0.89411,-1.06073 -1.22953,-1.42214 -1.27641,-1.37532 -0.035,0.0349 -0.70562,1.12991 -1.49031,2.43331 -1.0189,1.69242 -1.45747,2.37292 -1.53434,2.3807 -0.0592,0.006 -0.97711,-0.17868 -2.03979,-0.41037 z"
       id="path1"
       inkscape:export-filename="favicon.svg"
       inkscape:export-xdpi="96"
       inkscape:export-ydpi="96" /></g></svg>
